<?xml version="1.0" encoding="iso-8859-1"?>
<!-- Generator: Adobe Illustrator 19.0.0, SVG Export Plug-In . SVG Version: 6.00 Build 0)  -->
<svg version="1.1" id="Capa_1" xmlns="http://www.w3.org/2000/svg" xmlns:xlink="http://www.w3.org/1999/xlink" x="0px" y="0px"
	 viewBox="0 0 511.999 511.999" style="enable-background:new 0 0 511.999 511.999;" xml:space="preserve">
<path style="fill:#0BE5F3;" d="M360.001,189.249l-57.376-50.25l-30.624-6.219l-9.916-1.031h-12.296
	c-28.592,0-51.771,23.179-51.771,51.771c0,22.767,18.371,41.236,41.097,41.409l-0.001,0.008
	c-3.358,54.449-33.016,101.781-76.427,129.449c8.439,15.409,24.804,25.86,43.613,25.86c27.446,0,49.695-22.249,49.695-49.695h0.015
	c0,27.446,22.249,49.695,49.695,49.695s49.695-22.249,49.695-49.695h0.015c0,7.163,16.086-90.551,16.086-90.551L360.001,189.249z"/>
<path style="fill:#00D1C4;" d="M255.999,131.749h-6.211c-28.592,0-51.771,23.179-51.771,51.771
	c0,22.874,18.543,41.417,41.417,41.417h-0.323h-99.079c-22.874,0-41.417-18.543-41.417-41.417c0-28.592,23.179-51.771,51.771-51.771
	h6.211h82.836H255.999z"/>
<path style="fill:#A7F1F8;" d="M338.834,214.582l-0.001-0.001c0,58.771-30.603,110.394-76.743,139.803
	c8.439,15.41,24.805,25.862,43.613,25.862c27.446,0,49.695-22.249,49.695-49.695h0.015c0,27.446,22.249,49.695,49.695,49.695
	c27.391,0,49.602-22.161,49.691-49.531v-0.166c0-109.794-89.006-198.801-198.8-198.801
	C301.748,131.747,338.834,168.834,338.834,214.582z"/>
<path style="fill:#0BE5F3;" d="M255.999,131.748c18.744,0,36.028,6.233,49.909,16.729c70,30.768,118.888,100.705,118.888,182.071
	v0.166c-0.072,22.145-14.628,40.875-34.691,47.221c4.734,1.498,9.773,2.31,15.003,2.31c27.391,0,49.602-22.161,49.691-49.531v-0.166
	C454.8,220.754,365.794,131.748,255.999,131.748z"/>
<path style="fill:#0C0A0B;" d="M504.5,372.749c-23.142,0-41.992-18.725-42.196-41.819c0.001-0.127,0.001-0.253,0.001-0.379
	c0-0.043-0.006-0.085-0.007-0.128c-0.068-112.912-91.317-204.88-203.951-206.145c-0.78-0.02-1.563-0.03-2.348-0.03
	c-0.01,0-0.019,0.001-0.029,0.001h-6.182c-2.594,0-5.144,0.186-7.651,0.51c-0.84-0.325-1.749-0.51-2.704-0.51h-89.047
	c-32.683,0-59.272,26.589-59.272,59.271c0,26.973,21.944,48.917,48.917,48.917h7.65c4.143,0,7.5-3.358,7.5-7.5s-3.357-7.5-7.5-7.5
	h-7.65c-18.702,0-33.917-15.215-33.917-33.917c0-24.411,19.86-44.271,44.272-44.271h60.049
	c-12.209,10.864-19.919,26.681-19.919,44.271c0,13.161,5.234,25.116,13.718,33.917h-26.552c-4.143,0-7.5,3.358-7.5,7.5
	s3.357,7.5,7.5,7.5h53.234c-5.01,44.2-28.713,84.583-64.916,110.637c-1.233-3.958-1.897-8.164-1.897-12.523
	c0-4.142-3.372-7.5-7.515-7.5s-7.5,3.358-7.5,7.5c0,23.266-18.929,42.195-42.195,42.195c-11.271,0-21.867-4.389-29.837-12.358
	c-7.969-7.97-12.357-18.565-12.357-29.836l0,0c0-4.142-3.357-7.5-7.5-7.5c-4.142,0-7.5,3.358-7.5,7.5l0,0
	c0,23.268-18.931,42.198-42.199,42.198c-4.143,0-7.5,3.358-7.5,7.5s3.357,7.5,7.5,7.5c21.239,0,39.813-11.638,49.679-28.869
	c2.504,4.378,5.609,8.451,9.272,12.114c10.803,10.803,25.166,16.752,40.443,16.752c21.259,0,39.845-11.657,49.702-28.915
	c9.858,17.259,28.444,28.915,49.703,28.915s39.845-11.657,49.702-28.915c9.858,17.259,28.444,28.915,49.703,28.915
	s39.845-11.657,49.703-28.915c9.857,17.259,28.443,28.915,49.702,28.915c21.251,0,39.833-11.651,49.693-28.9
	c9.86,17.252,28.443,28.903,49.697,28.903c4.143,0,7.5-3.358,7.5-7.5C512,376.107,508.643,372.749,504.5,372.749z M248.494,330.551
	c0,23.266-18.929,42.195-42.195,42.195c-13.503,0-25.537-6.384-33.265-16.283c41.21-28.901,68.026-74.61,73.026-124.574
	c19.264-3.174,34.008-19.936,34.008-40.085c0-18.751-15.256-34.007-34.007-34.007c-4.143,0-7.5,3.358-7.5,7.5s3.357,7.5,7.5,7.5
	c10.48,0,19.007,8.526,19.007,19.007c0,14.134-11.499,25.634-25.634,25.634c-18.702,0-33.917-15.215-33.917-33.917
	c0-24.411,19.86-44.271,44.271-44.271h6.211c0.005,0,0.01-0.001,0.015-0.001c0.008,0,0.016,0,0.023,0
	c41.522,0.021,75.296,33.806,75.296,75.333c0,51.366-24.491,98.754-65.929,128.489c-1.232-3.957-1.896-8.163-1.896-12.52
	c0-4.142-3.372-7.5-7.515-7.5C251.852,323.051,248.494,326.408,248.494,330.551z M405.109,372.745
	c-23.267,0-42.195-18.929-42.195-42.195c0-4.142-3.372-7.5-7.515-7.5s-7.5,3.358-7.5,7.5c0,23.266-18.929,42.195-42.195,42.195
	c-13.503,0-25.536-6.383-33.264-16.282c46.403-32.464,73.894-84.938,73.894-141.881v-0.001v-0.001l0,0v-0.001
	c-0.001-25.321-10.478-48.238-27.319-64.656C393.631,176.032,447.3,247.135,447.3,330.548c0,0.014,0.002,0.027,0.002,0.041
	c0,0.114,0,0.227,0.001,0.341C447.099,354.022,428.25,372.745,405.109,372.745z"/>
<g>
</g>
<g>
</g>
<g>
</g>
<g>
</g>
<g>
</g>
<g>
</g>
<g>
</g>
<g>
</g>
<g>
</g>
<g>
</g>
<g>
</g>
<g>
</g>
<g>
</g>
<g>
</g>
<g>
</g>
</svg>
